<svg width="400" height="500" viewBox="0 0 400 500" xmlns="http://www.w3.org/2000/svg" role="img" aria-label="T-shirt Versículo nas Costas — pré-visualização ilustrada" preserveAspectRatio="xMidYMid slice"><defs><linearGradient id="a1" x1="0" y1="0" x2="1" y2="1"><stop offset="0" stop-color="#593a28"/><stop offset="1" stop-color="#4d2e1c"/></linearGradient><pattern id="a2" width="60" height="60" patternUnits="userSpaceOnUse" patternTransform="rotate(12)"><circle cx="10" cy="10" r="1.4" fill="#f0dbac" opacity="0.18"/><circle cx="40" cy="34" r="1" fill="#f0dbac" opacity="0.14"/></pattern></defs><rect width="400" height="500" fill="url(#a1)"/><rect width="400" height="500" fill="url(#a2)"/><g transform="translate(-10,-10) scale(1.3)" opacity="0.8"><g opacity="0.9"><g transform="translate(6 60) rotate(-18) scale(0.9)"><g transform="rotate(0 20 20)"><defs><linearGradient id="a3" x1="0" y1="0" x2="1" y2="1"><stop offset="0" stop-color="#8a9a7a" stop-opacity="0.55"/><stop offset="1" stop-color="#8a9a7a" stop-opacity="1"/></linearGradient></defs><path d="M20 1C6 10 2 22 20 39 38 22 34 10 20 1Z" fill="url(#a3)" stroke="#8a9a7a" stroke-width="0.6" stroke-opacity="0.5"/><path d="M20 4 L20 36" stroke="#8a9a7a" stroke-opacity="0.55" stroke-width="0.9" fill="none"/><path d="M20 11 L14 8 M20 11 L26 8 M20 18 L13 15 M20 18 L27 15 M20 25 L14 23 M20 25 L26 23" stroke="#8a9a7a" stroke-opacity="0.4" stroke-width="0.6" fill="none"/></g></g><g transform="translate(26 30) rotate(14) scale(0.7)"><g transform="rotate(0 20 20)"><defs><linearGradient id="a4" x1="0" y1="0" x2="1" y2="1"><stop offset="0" stop-color="#8a9a7a" stop-opacity="0.55"/><stop offset="1" stop-color="#8a9a7a" stop-opacity="1"/></linearGradient></defs><path d="M20 2C9 8 6 20 20 38 34 20 31 8 20 2Z" fill="url(#a4)" stroke="#8a9a7a" stroke-width="0.6" stroke-opacity="0.5"/><path d="M20 4 L20 36" stroke="#8a9a7a" stroke-opacity="0.55" stroke-width="0.9" fill="none"/><path d="M20 11 L14 8 M20 11 L26 8 M20 18 L13 15 M20 18 L27 15 M20 25 L14 23 M20 25 L26 23" stroke="#8a9a7a" stroke-opacity="0.4" stroke-width="0.6" fill="none"/></g></g><g transform="translate(4 10) rotate(-6) scale(0.55)"><g transform="rotate(0 20 20)"><defs><linearGradient id="a5" x1="0" y1="0" x2="1" y2="1"><stop offset="0" stop-color="#8a9a7a" stop-opacity="0.55"/><stop offset="1" stop-color="#8a9a7a" stop-opacity="1"/></linearGradient></defs><path d="M20 3C8 3 3 12 3 20c0 9 8 15 17 15s17-6 17-15C37 12 32 3 20 3Z" fill="url(#a5)" stroke="#8a9a7a" stroke-width="0.6" stroke-opacity="0.5"/><path d="M20 4 L20 36" stroke="#8a9a7a" stroke-opacity="0.55" stroke-width="0.9" fill="none"/><path d="M20 11 L14 8 M20 11 L26 8 M20 18 L13 15 M20 18 L27 15 M20 25 L14 23 M20 25 L26 23" stroke="#8a9a7a" stroke-opacity="0.4" stroke-width="0.6" fill="none"/></g></g><g transform="translate(40 55)"><g><defs><radialGradient id="a6" cx="0.35" cy="0.3" r="0.75"><stop offset="0" stop-color="#f3d9a0"/><stop offset="0.55" stop-color="#c4953f"/><stop offset="1" stop-color="#8a6226"/></radialGradient></defs><ellipse cx="0" cy="0.75" rx="5.25" ry="2" fill="#2b1810" opacity="0.18"/><circle r="5" fill="url(#a6)"/><ellipse cx="-1.6" cy="-1.6" rx="1.4000000000000001" ry="0.8999999999999999" fill="#fff" opacity="0.55"/></g></g><g transform="translate(52 34)"><g><defs><radialGradient id="a7" cx="0.35" cy="0.3" r="0.75"><stop offset="0" stop-color="#f3d9a0"/><stop offset="0.55" stop-color="#c4953f"/><stop offset="1" stop-color="#8a6226"/></radialGradient></defs><ellipse cx="0" cy="0.54" rx="3.7800000000000002" ry="1.4400000000000002" fill="#2b1810" opacity="0.18"/><circle r="3.6" fill="url(#a7)"/><ellipse cx="-1.1520000000000001" cy="-1.1520000000000001" rx="1.0080000000000002" ry="0.648" fill="#fff" opacity="0.55"/></g></g><g transform="translate(24 74)"><g><defs><radialGradient id="a8" cx="0.35" cy="0.3" r="0.75"><stop offset="0" stop-color="#f3d9a0"/><stop offset="0.55" stop-color="#c4953f"/><stop offset="1" stop-color="#8a6226"/></radialGradient></defs><ellipse cx="0" cy="0.6" rx="4.2" ry="1.6" fill="#2b1810" opacity="0.18"/><circle r="4" fill="url(#a8)"/><ellipse cx="-1.28" cy="-1.28" rx="1.12" ry="0.72" fill="#fff" opacity="0.55"/></g></g></g></g><g transform="translate(410,510) scale(-1.3,-1.3) translate(-10,-10)" opacity="0.55"><g opacity="0.9"><g transform="translate(6 60) rotate(-18) scale(0.9)"><g transform="rotate(0 20 20)"><defs><linearGradient id="a9" x1="0" y1="0" x2="1" y2="1"><stop offset="0" stop-color="#c9d3ba" stop-opacity="0.55"/><stop offset="1" stop-color="#c9d3ba" stop-opacity="1"/></linearGradient></defs><path d="M20 1C6 10 2 22 20 39 38 22 34 10 20 1Z" fill="url(#a9)" stroke="#c9d3ba" stroke-width="0.6" stroke-opacity="0.5"/><path d="M20 4 L20 36" stroke="#c9d3ba" stroke-opacity="0.55" stroke-width="0.9" fill="none"/><path d="M20 11 L14 8 M20 11 L26 8 M20 18 L13 15 M20 18 L27 15 M20 25 L14 23 M20 25 L26 23" stroke="#c9d3ba" stroke-opacity="0.4" stroke-width="0.6" fill="none"/></g></g><g transform="translate(26 30) rotate(14) scale(0.7)"><g transform="rotate(0 20 20)"><defs><linearGradient id="a10" x1="0" y1="0" x2="1" y2="1"><stop offset="0" stop-color="#c9d3ba" stop-opacity="0.55"/><stop offset="1" stop-color="#c9d3ba" stop-opacity="1"/></linearGradient></defs><path d="M20 2C9 8 6 20 20 38 34 20 31 8 20 2Z" fill="url(#a10)" stroke="#c9d3ba" stroke-width="0.6" stroke-opacity="0.5"/><path d="M20 4 L20 36" stroke="#c9d3ba" stroke-opacity="0.55" stroke-width="0.9" fill="none"/><path d="M20 11 L14 8 M20 11 L26 8 M20 18 L13 15 M20 18 L27 15 M20 25 L14 23 M20 25 L26 23" stroke="#c9d3ba" stroke-opacity="0.4" stroke-width="0.6" fill="none"/></g></g><g transform="translate(4 10) rotate(-6) scale(0.55)"><g transform="rotate(0 20 20)"><defs><linearGradient id="a11" x1="0" y1="0" x2="1" y2="1"><stop offset="0" stop-color="#c9d3ba" stop-opacity="0.55"/><stop offset="1" stop-color="#c9d3ba" stop-opacity="1"/></linearGradient></defs><path d="M20 3C8 3 3 12 3 20c0 9 8 15 17 15s17-6 17-15C37 12 32 3 20 3Z" fill="url(#a11)" stroke="#c9d3ba" stroke-width="0.6" stroke-opacity="0.5"/><path d="M20 4 L20 36" stroke="#c9d3ba" stroke-opacity="0.55" stroke-width="0.9" fill="none"/><path d="M20 11 L14 8 M20 11 L26 8 M20 18 L13 15 M20 18 L27 15 M20 25 L14 23 M20 25 L26 23" stroke="#c9d3ba" stroke-opacity="0.4" stroke-width="0.6" fill="none"/></g></g><g transform="translate(40 55)"><g><defs><radialGradient id="a12" cx="0.35" cy="0.3" r="0.75"><stop offset="0" stop-color="#f3d9a0"/><stop offset="0.55" stop-color="#c4953f"/><stop offset="1" stop-color="#8a6226"/></radialGradient></defs><ellipse cx="0" cy="0.75" rx="5.25" ry="2" fill="#2b1810" opacity="0.18"/><circle r="5" fill="url(#a12)"/><ellipse cx="-1.6" cy="-1.6" rx="1.4000000000000001" ry="0.8999999999999999" fill="#fff" opacity="0.55"/></g></g><g transform="translate(52 34)"><g><defs><radialGradient id="a13" cx="0.35" cy="0.3" r="0.75"><stop offset="0" stop-color="#f3d9a0"/><stop offset="0.55" stop-color="#c4953f"/><stop offset="1" stop-color="#8a6226"/></radialGradient></defs><ellipse cx="0" cy="0.54" rx="3.7800000000000002" ry="1.4400000000000002" fill="#2b1810" opacity="0.18"/><circle r="3.6" fill="url(#a13)"/><ellipse cx="-1.1520000000000001" cy="-1.1520000000000001" rx="1.0080000000000002" ry="0.648" fill="#fff" opacity="0.55"/></g></g><g transform="translate(24 74)"><g><defs><radialGradient id="a14" cx="0.35" cy="0.3" r="0.75"><stop offset="0" stop-color="#f3d9a0"/><stop offset="0.55" stop-color="#c4953f"/><stop offset="1" stop-color="#8a6226"/></radialGradient></defs><ellipse cx="0" cy="0.6" rx="4.2" ry="1.6" fill="#2b1810" opacity="0.18"/><circle r="4" fill="url(#a14)"/><ellipse cx="-1.28" cy="-1.28" rx="1.12" ry="0.72" fill="#fff" opacity="0.55"/></g></g></g></g><circle cx="200" cy="215" r="118" fill="#241a12" opacity="0.18"/><circle cx="200" cy="210" r="112" fill="none" stroke="#e6c583" stroke-width="1.4" stroke-opacity="0.55"/><g transform="translate(140,150)"><svg viewBox="0 0 120 120" width="120" height="120"><g fill="#e6c583" fill-opacity="0.14" stroke="#e6c583" stroke-width="3" stroke-linejoin="round"><path d="M42 22 24 32l6 14 10-5v57h40V41l10 5 6-14-18-10c-3 5-9 8-16 8s-13-3-16-8Z"/></g><g stroke="#c4953f" stroke-width="2.4" fill="none" stroke-linecap="round" stroke-linejoin="round"><path d="M60 46v34M50 56h20"/><path d="M42 78c4-4 8-4 12 0s8 4 12 0" opacity="0.6"/></g></svg></g><g transform="translate(200,392)"><rect x="-92" y="-20" width="184" height="40" rx="20" fill="#1c1108" opacity="0.35"/><text x="0" y="6" text-anchor="middle" font-family="Georgia, 'Palatino Linotype', serif" font-size="16" letter-spacing="1" fill="#f0dbac">T-shirts Temas Cristãos</text></g></svg>
